<?xml version="1.0" encoding="UTF-8"?>
<svg width="274px" height="220px" viewBox="0 0 274 220" version="1.1" xmlns="http://www.w3.org/2000/svg" xmlns:xlink="http://www.w3.org/1999/xlink">
    <!-- Generator: Sketch 48.2 (47327) - http://www.bohemiancoding.com/sketch -->
    <title>Lancaster Neighbor F</title>
    <desc>Created with Sketch.</desc>
    <defs></defs>
    <g id="Version-1" stroke="none" stroke-width="1" fill="none" fill-rule="evenodd" transform="translate(-118.000000, -87.000000)">
        <path d="M118,130.094642 L118,89.0831247 C118,87.694368 119.301959,87 121.905916,87 L124.119268,87 C126.723225,87 128.025184,87.694368 128.025184,89.0831247 L128.025184,124.170756 L142.542172,124.170756 C143.84415,124.170756 144.495129,125.255706 144.495129,127.425638 L144.495129,129.443665 C144.495129,131.613598 143.84415,132.698548 142.542172,132.698548 L120.603944,132.698548 C118.867973,132.698548 118,131.830588 118,130.094642 Z M147.750059,123.715073 C147.750059,122.49991 147.858556,121.393262 148.075552,120.395093 C148.292549,119.396924 148.791633,118.322823 149.57282,117.172759 C150.354007,116.022695 151.395574,115.078789 152.697553,114.341012 C155.778902,112.518268 160.357458,111.60691 166.433357,111.60691 L166.433357,109.458688 C166.433357,106.984965 164.74081,105.748122 161.355666,105.748122 C158.968706,105.748122 156.646879,106.268898 154.390116,107.310466 C153.608929,107.657655 153.153244,107.831247 153.023046,107.831247 C152.372057,107.831247 151.64513,107.158578 150.842243,105.81322 C150.039356,104.467862 149.637919,103.404611 149.637919,102.623435 C149.637919,101.451672 150.842231,100.41012 153.250891,99.4987481 C155.659551,98.5873765 158.599808,98.1316975 162.071751,98.1316975 C171.402597,98.1316975 176.06795,101.75543 176.06795,109.003005 L176.06795,121.241362 C176.06795,123.932078 176.198146,126.188774 176.458541,128.011517 L176.849133,130.680521 C176.849133,131.374899 175.970311,131.895675 174.21264,132.242864 C172.454969,132.590053 171.14216,132.763645 170.274174,132.763645 C169.406189,132.763645 168.831157,132.676849 168.549062,132.503255 C168.266966,132.32966 168.039123,132.036724 167.865526,131.624437 C167.691929,131.212149 167.561733,130.886665 167.474935,130.647972 C167.388136,130.409279 167.290489,129.986149 167.181991,129.378568 C167.073493,128.770987 166.997545,128.402104 166.954146,128.271908 C166.172959,129.660665 164.827601,130.832411 162.918033,131.787181 C161.008464,132.741951 159.164023,133.219329 157.384652,133.219329 C154.042907,133.219329 151.601734,132.351369 150.06106,130.615423 C148.520385,128.879477 147.750059,126.579383 147.750059,123.715073 Z M157.319553,122.738608 C157.319553,123.606581 157.601644,124.300949 158.165835,124.821733 C158.730026,125.342516 159.576299,125.602904 160.70468,125.602904 C161.833062,125.602904 162.939727,125.212322 164.024709,124.431147 C165.109691,123.649971 165.912566,122.673516 166.433357,121.501753 L166.433357,117.921382 C160.357458,117.921382 157.319553,119.527108 157.319553,122.738608 Z M184.530767,130.745618 L184.530767,110.109664 C184.530767,106.854766 184.400572,104.576371 184.140176,103.274412 C183.87978,101.972452 183.749584,101.191288 183.749584,100.930896 C183.749584,100.236518 184.628407,99.715742 186.386077,99.3685528 C188.143748,99.0213636 189.456557,98.8477717 190.324543,98.8477717 C191.192528,98.8477717 191.76756,98.9345677 192.049656,99.1081622 C192.331751,99.2817568 192.559594,99.5529943 192.733191,99.9218828 C192.906788,100.290771 193.036984,100.594557 193.123782,100.83325 C193.210581,101.071942 193.308228,101.473374 193.416726,102.037556 C193.525224,102.601739 193.601172,102.948923 193.644571,103.079119 C194.686154,101.690362 196.07491,100.518616 197.810881,99.5638458 C199.546853,98.6090755 201.391295,98.1316975 203.344262,98.1316975 C206.599208,98.1316975 209.007833,98.988808 210.570207,100.703055 C212.132581,102.417301 212.913756,105.075428 212.913756,108.677516 L212.913756,130.745618 C212.913756,132.134375 211.611797,132.828743 209.00784,132.828743 L207.18508,132.828743 C204.581123,132.828743 203.279164,132.134375 203.279164,130.745618 L203.279164,110.109664 C203.279164,107.418948 201.977205,106.07361 199.373248,106.07361 C197.203284,106.07361 195.467338,107.332152 194.16536,109.849274 L194.16536,130.745618 C194.16536,132.134375 192.863401,132.828743 190.259444,132.828743 L188.436683,132.828743 C185.832726,132.828743 184.530767,132.134375 184.530767,130.745618 Z M223.524828,128.955433 C220.834072,126.112822 219.488715,121.751323 219.488715,115.870806 C219.488715,109.990289 220.844922,105.563694 223.557377,102.590886 C226.269832,99.6180789 230.490349,98.1316975 236.219054,98.1316975 C238.866411,98.1316975 241.329283,98.533129 243.607745,99.336004 C245.886208,100.138879 247.025422,101.234678 247.025422,102.623435 C247.025422,103.274415 246.580586,104.272569 245.6909,105.617927 C244.801215,106.963285 244.095987,107.635954 243.575196,107.635954 C243.401599,107.635954 243.011011,107.484061 242.403421,107.18027 C240.493853,106.2255 238.432418,105.748122 236.219054,105.748122 C234.005691,105.748122 232.313144,106.550985 231.141364,108.156735 C229.969583,109.762485 229.383702,112.25787 229.383702,115.642964 C229.383702,119.028059 229.937034,121.534293 231.043716,123.161743 C232.150398,124.789192 233.842944,125.602904 236.121407,125.602904 C238.399869,125.602904 240.602349,125.103827 242.728914,124.105658 C243.423303,123.845267 243.81389,123.715073 243.900689,123.715073 C244.551678,123.715073 245.278605,124.355193 246.081492,125.635453 C246.884379,126.915713 247.285816,127.946416 247.285816,128.727591 C247.285816,129.508767 246.808431,130.224834 245.853647,130.875814 C244.898863,131.526793 243.748799,132.004171 242.403421,132.307962 C239.625867,132.915543 237.455936,133.219329 235.893561,133.219329 C230.338453,133.219329 226.215583,131.798045 223.524828,128.955433 Z M251.061535,123.715073 C251.061535,122.49991 251.170031,121.393262 251.387028,120.395093 C251.604024,119.396924 252.103108,118.322823 252.884296,117.172759 C253.665483,116.022695 254.70705,115.078789 256.009028,114.341012 C259.090377,112.518268 263.668933,111.60691 269.744833,111.60691 L269.744833,109.458688 C269.744833,106.984965 268.052286,105.748122 264.667142,105.748122 C262.280181,105.748122 259.958355,106.268898 257.701592,107.310466 C256.920405,107.657655 256.464719,107.831247 256.334521,107.831247 C255.683532,107.831247 254.956605,107.158578 254.153718,105.81322 C253.350831,104.467862 252.949394,103.404611 252.949394,102.623435 C252.949394,101.451672 254.153706,100.41012 256.562366,99.4987481 C258.971027,98.5873765 261.911284,98.1316975 265.383226,98.1316975 C274.714072,98.1316975 279.379425,101.75543 279.379425,109.003005 L279.379425,121.241362 C279.379425,123.932078 279.509621,126.188774 279.770017,128.011517 L280.160608,130.680521 C280.160608,131.374899 279.281786,131.895675 277.524115,132.242864 C275.766444,132.590053 274.453635,132.763645 273.58565,132.763645 C272.717664,132.763645 272.142632,132.676849 271.860537,132.503255 C271.578442,132.32966 271.350599,132.036724 271.177002,131.624437 C271.003405,131.212149 270.873209,130.886665 270.78641,130.647972 C270.699612,130.409279 270.601965,129.986149 270.493466,129.378568 C270.384968,128.770987 270.309021,128.402104 270.265621,128.271908 C269.484434,129.660665 268.139077,130.832411 266.229508,131.787181 C264.31994,132.741951 262.475498,133.219329 260.696127,133.219329 C257.354383,133.219329 254.91321,132.351369 253.372535,130.615423 C251.831861,128.879477 251.061535,126.579383 251.061535,123.715073 Z M260.631029,122.738608 C260.631029,123.606581 260.91312,124.300949 261.477311,124.821733 C262.041501,125.342516 262.887775,125.602904 264.016156,125.602904 C265.144537,125.602904 266.251202,125.212322 267.336184,124.431147 C268.421166,123.649971 269.224041,122.673516 269.744833,121.501753 L269.744833,117.921382 C263.668933,117.921382 260.631029,119.527108 260.631029,122.738608 Z M285.824186,128.597396 C285.824186,127.903018 286.236473,126.926563 287.06106,125.668002 C287.885646,124.409441 288.623423,123.78017 289.274412,123.78017 C289.361211,123.78017 290.142386,124.083956 291.617962,124.691537 C293.093537,125.299118 294.438895,125.602904 295.654075,125.602904 C298.301431,125.602904 299.625089,124.626449 299.625089,122.67351 C299.625089,121.631943 299.180253,120.796531 298.290568,120.167251 C297.400883,119.53797 296.315917,119.006345 295.035638,118.572359 C293.755359,118.138372 292.475099,117.617596 291.194821,117.010015 C289.914542,116.402434 288.829576,115.40428 287.939891,114.015523 C287.050205,112.626767 286.605369,110.847449 286.605369,108.677516 C286.605369,105.422618 287.679486,102.851286 289.82775,100.963445 C291.976015,99.075604 294.894573,98.1316975 298.583512,98.1316975 C300.319483,98.1316975 301.968631,98.3052895 303.531005,98.6524787 C306.655753,99.3468571 308.218104,100.540302 308.218104,102.232849 C308.218104,102.797032 307.892614,103.740938 307.241625,105.064597 C306.590636,106.388256 305.983055,107.050075 305.418864,107.050075 C305.375465,107.050075 304.735335,106.822236 303.498456,106.36655 C302.261576,105.910864 301.057264,105.683025 299.885483,105.683025 C297.541922,105.683025 296.370159,106.464188 296.370159,108.02654 C296.370159,108.894513 296.814995,109.59973 297.70468,110.142213 C298.594366,110.684696 299.679332,111.183773 300.95961,111.639459 C302.239889,112.095145 303.520149,112.659319 304.800428,113.331998 C306.080706,114.004677 307.165672,115.067928 308.055358,116.521783 C308.945043,117.975637 309.389879,119.765805 309.389879,121.892339 C309.389879,125.320832 308.272364,128.065755 306.037301,130.127191 C303.802238,132.188627 301.003026,133.219329 297.639582,133.219329 C294.276137,133.219329 291.466076,132.817898 289.209313,132.015023 C286.952551,131.212148 285.824186,130.07295 285.824186,128.597396 Z M327.682585,125.602904 L329.440247,125.342514 C330.004438,125.342514 330.481823,125.982634 330.872416,127.262894 C331.26301,128.543154 331.458304,129.465362 331.458304,130.029544 C331.458304,132.156078 329.375169,133.219329 325.208838,133.219329 C318.872543,133.219329 315.704443,129.704091 315.704443,122.67351 L315.704443,106.268903 L314.662865,106.268903 C313.360887,106.268903 312.709907,105.183953 312.709907,103.014021 L312.709907,101.907361 C312.709907,99.7374286 313.360887,98.6524787 314.662865,98.6524787 L315.704443,98.6524787 L316.550725,92.4682023 C316.767721,91.0794456 317.939484,90.3850776 320.066049,90.3850776 L322.084105,90.3850776 C324.25407,90.3850776 325.339035,91.0794456 325.339035,92.4682023 L325.339035,98.6524787 L328.528867,98.6524787 C329.830845,98.6524787 330.481825,99.7374286 330.481825,101.907361 L330.481825,103.014021 C330.481825,105.183953 329.830845,106.268903 328.528867,106.268903 L325.339035,106.268903 L325.339035,122.803706 C325.339035,124.669847 326.120211,125.602904 327.682585,125.602904 Z M339.888572,128.629945 C337.089318,125.57034 335.689713,121.154594 335.689713,115.382574 C335.689713,109.610554 337.089318,105.292453 339.888572,102.428142 C342.687826,99.5638314 346.528605,98.1316975 351.411024,98.1316975 C356.293443,98.1316975 359.87383,99.6940254 362.152293,102.818728 C364.430755,105.943431 365.569969,109.979444 365.569969,114.92689 C365.569969,115.447674 365.125133,116.217989 364.235448,117.237857 C363.345763,118.257725 362.683933,118.767651 362.249941,118.767651 L345.649798,118.767651 C345.866794,121.241374 346.604571,122.998993 347.86315,124.040561 C349.12173,125.082128 350.727479,125.602904 352.680447,125.602904 C354.633414,125.602904 356.499556,125.26657 358.278926,124.593891 C360.058297,123.921212 360.969668,123.584877 361.013067,123.584877 C361.664056,123.584877 362.390984,124.224998 363.19387,125.505258 C363.996757,126.785518 364.398194,127.794521 364.398194,128.532298 C364.398194,129.964454 363.041987,131.103651 360.329532,131.949925 C357.617077,132.796199 355.067407,133.219329 352.680447,133.219329 C346.951741,133.219329 342.687826,131.68955 339.888572,128.629945 Z M356.195771,112.322984 C356.195771,110.326647 355.805183,108.73177 355.023996,107.538307 C354.242809,106.344845 353.071046,105.748122 351.508672,105.748122 C348.297125,105.748122 346.344187,107.939721 345.649798,112.322984 L356.195771,112.322984 Z M372.079829,130.745618 L372.079829,110.109664 C372.079829,106.854766 371.949633,104.576371 371.689237,103.274412 C371.428842,101.972452 371.298646,101.191288 371.298646,100.930896 C371.298646,100.236518 372.177468,99.715742 373.935139,99.3685528 C375.69281,99.0213636 377.005619,98.8477717 377.873604,98.8477717 C378.74159,98.8477717 379.316622,98.9345677 379.598717,99.1081622 C379.880812,99.2817568 380.108655,99.5529943 380.282252,99.9218828 C380.455849,100.290771 380.586045,100.594557 380.672844,100.83325 C380.759642,101.071942 380.857289,101.473374 380.965788,102.037556 C381.074286,102.601739 381.150233,102.948923 381.193633,103.079119 C383.016403,99.7808214 385.381628,98.1316975 388.28938,98.1316975 C389.678157,98.1316975 390.643776,98.489731 391.186268,99.2058087 C391.728759,99.9218864 392,100.735599 392,101.64697 C392,102.558342 391.804706,103.697539 391.414113,105.064597 C391.023519,106.431654 390.546134,107.115173 389.981943,107.115173 C389.721548,107.115173 389.265862,107.028377 388.614873,106.854782 C387.963884,106.681188 387.399701,106.594392 386.922309,106.594392 C384.752345,106.594392 383.0164,107.679342 381.714421,109.849274 L381.714421,130.745618 C381.714421,132.134375 380.412463,132.828743 377.808506,132.828743 L375.985745,132.828743 C373.381788,132.828743 372.079829,132.134375 372.079829,130.745618 Z M118.138209,193.78017 L118.138209,150.835754 C118.138209,149.404266 119.480229,148.688533 122.164307,148.688533 L125.049677,148.688533 C127.19694,148.688533 128.673162,149.292433 129.478385,150.50025 L147.126114,177.676014 L147.126114,150.835754 C147.126114,149.404266 148.468134,148.688533 151.152212,148.688533 L153.09816,148.688533 C155.782238,148.688533 157.124258,149.404266 157.124258,150.835754 L157.124258,193.78017 C157.124258,195.211658 155.782238,195.927391 153.09816,195.927391 L150.548298,195.927391 C148.401035,195.927391 146.924814,195.323491 146.11959,194.115674 L128.136353,166.604407 L128.136353,193.78017 C128.136353,195.211658 126.794333,195.927391 124.110255,195.927391 L122.164307,195.927391 C119.480229,195.927391 118.138209,195.211658 118.138209,193.78017 Z M168.900594,191.599399 C166.015209,188.445653 164.572539,183.894037 164.572539,177.944417 C164.572539,171.994796 166.015209,167.54383 168.900594,164.591387 C171.785979,161.638944 175.744935,160.162744 180.777583,160.162744 C185.81023,160.162744 189.500783,161.773144 191.849352,164.993991 C194.197921,168.214838 195.372188,172.375037 195.372188,177.474712 C195.372188,178.01152 194.913665,178.805536 193.996604,179.856785 C193.079544,180.908034 192.397351,181.43365 191.950005,181.43365 L174.839088,181.43365 C175.062762,183.983488 175.823239,185.795187 177.120544,186.868803 C178.417849,187.942419 180.073006,188.479219 182.086065,188.479219 C184.099124,188.479219 186.022685,188.132536 187.856805,187.439159 C189.690925,186.745782 190.630339,186.399099 190.675074,186.399099 C191.346093,186.399099 192.095387,187.058915 192.922978,188.378568 C193.750569,189.698221 194.164358,190.73827 194.164358,191.498748 C194.164358,192.97497 192.766422,194.149219 189.970506,195.021532 C187.174591,195.893845 184.54647,196.329995 182.086065,196.329995 C176.181092,196.329995 171.785979,194.753145 168.900594,191.599399 Z M185.709553,174.790686 C185.709553,172.732922 185.306947,171.088973 184.501723,169.858788 C183.6965,168.628603 182.488683,168.01352 180.878235,168.01352 C177.567872,168.01352 175.554843,170.272553 174.839088,174.790686 L185.709553,174.790686 Z M205.907144,154.928893 C203.223065,154.928893 201.881046,154.21316 201.881046,152.781673 L201.881046,147.34652 C201.881046,145.915032 203.223065,145.199299 205.907144,145.199299 L207.78599,145.199299 C210.470068,145.199299 211.812088,145.915032 211.812088,147.34652 L211.812088,152.781673 C211.812088,154.21316 210.470068,154.928893 207.78599,154.928893 L205.907144,154.928893 Z M201.881046,193.78017 L201.881046,162.712569 C201.881046,161.281081 203.223065,160.565348 205.907144,160.565348 L207.78599,160.565348 C210.470068,160.565348 211.812088,161.281081 211.812088,162.712569 L211.812088,193.78017 C211.812088,195.211658 210.470068,195.927391 207.78599,195.927391 L205.907144,195.927391 C203.223065,195.927391 201.881046,195.211658 201.881046,193.78017 Z M217.314421,200.758638 C217.314421,197.135185 219.349817,194.540652 223.42067,192.974962 L223.487772,192.70656 C221.564182,191.722412 220.602401,190.067279 220.602401,187.741112 C220.602401,185.414944 221.944421,183.536145 224.628499,182.104657 C221.004993,180.091627 219.193267,176.904378 219.193267,172.542814 C219.193267,168.18125 220.524103,165.027551 223.185814,163.081622 C225.847526,161.135694 229.325592,160.162744 233.620118,160.162744 C235.364769,160.162744 237.087027,160.341677 238.786944,160.699549 L249.590306,160.699549 C250.932346,160.699549 251.603355,161.817882 251.603355,164.054582 L251.603355,165.195293 C251.603355,167.297791 251.055364,168.349024 249.959365,168.349024 C248.863367,168.349024 247.91277,168.259557 247.107546,168.080621 L246.973343,168.349024 C247.689097,169.288437 248.046969,170.54097 248.046969,172.10666 C248.046969,176.087985 246.783234,179.062751 244.255727,181.031047 C241.728219,182.999342 238.429089,183.983475 234.358236,183.983475 C231.629423,183.983475 230.265036,184.587375 230.265036,185.795193 C230.265036,187.092479 232.032028,187.897678 235.566065,188.210816 C239.100102,188.523954 242.365682,189.262054 245.362904,190.425138 C246.839147,191.00668 248.080515,192.001996 249.087044,193.411117 C250.093574,194.820237 250.596831,196.553654 250.596831,198.611417 C250.596831,202.055934 249.008775,204.818217 245.832615,206.898348 C242.656455,208.978478 238.473829,210.018528 233.28461,210.018528 C222.637764,210.018528 217.314421,206.931929 217.314421,200.758638 Z M233.620118,176.803706 C235.096361,176.803706 236.304179,176.412289 237.243606,175.629444 C238.183034,174.846599 238.65274,173.661166 238.65274,172.07311 C238.65274,170.485053 238.183034,169.29962 237.243606,168.516775 C236.304179,167.73393 235.096361,167.342514 233.620118,167.342514 C232.143875,167.342514 230.936057,167.73393 229.99663,168.516775 C229.057202,169.29962 228.587496,170.485053 228.587496,172.07311 C228.587496,173.661166 229.057202,174.846599 229.99663,175.629444 C230.936057,176.412289 232.143875,176.803706 233.620118,176.803706 Z M226.977056,199.148222 C226.977056,201.161252 229.303223,202.167752 233.955626,202.167752 C238.608029,202.167752 240.934196,201.071785 240.934196,198.87982 C240.934196,197.850938 240.184902,197.101655 238.686291,196.631948 C237.187681,196.162241 234.492459,195.793191 230.600545,195.524787 C228.184874,196.374733 226.977056,197.582533 226.977056,199.148222 Z M256.770181,193.78017 L256.770181,147.34652 C256.770181,145.915032 258.1122,145.199299 260.796279,145.199299 L262.675125,145.199299 C265.359203,145.199299 266.701223,145.915032 266.701223,147.34652 L266.701223,164.725588 C269.251097,161.683677 272.404843,160.162744 276.162553,160.162744 C282.917484,160.162744 286.294899,163.786143 286.294899,171.03305 L286.294899,193.78017 C286.294899,195.211658 284.95288,195.927391 282.268801,195.927391 L280.389956,195.927391 C277.705877,195.927391 276.363858,195.211658 276.363858,193.78017 L276.363858,172.509264 C276.363858,169.735756 274.93237,168.349024 272.069353,168.349024 C269.832621,168.349024 268.043262,169.64629 266.701223,172.240861 L266.701223,193.78017 C266.701223,195.211658 265.359203,195.927391 262.675125,195.927391 L260.796279,195.927391 C258.1122,195.927391 256.770181,195.211658 256.770181,193.78017 Z M294.682603,193.78017 L294.682603,147.34652 C294.682603,145.915032 296.024622,145.199299 298.708701,145.199299 L300.587547,145.199299 C303.271626,145.199299 304.613645,145.915032 304.613645,147.34652 L304.613645,162.242864 C306.537234,160.856111 308.818667,160.162744 311.458011,160.162744 C315.931476,160.162744 319.409542,161.784327 321.892315,165.027541 C324.375088,168.270756 325.616456,172.699354 325.616456,178.31347 C325.616456,183.927586 324.453372,188.333818 322.127171,191.532298 C319.800969,194.730779 316.781426,196.329995 313.06845,196.329995 C311.055391,196.329995 309.254849,195.860295 307.666769,194.920881 C306.078689,193.981468 304.882055,192.773668 304.076832,191.297446 L303.405815,194.182774 C303.137408,195.345858 301.840122,195.927391 299.513921,195.927391 L298.708701,195.927391 C296.024622,195.927391 294.682603,195.211658 294.682603,193.78017 Z M310.115979,188.210816 C313.739485,188.210816 315.551211,184.844634 315.551211,178.112168 C315.551211,171.379703 313.471081,168.01352 309.310759,168.01352 C307.700312,168.01352 306.134623,168.438487 304.613645,169.288433 L304.613645,184.251878 C306.134623,186.891183 307.968716,188.210816 310.115979,188.210816 Z M331.252993,178.212819 C331.252993,172.352666 332.639746,167.879334 335.413294,164.792689 C338.186842,161.706044 342.235266,160.162744 347.558689,160.162744 C352.882112,160.162744 356.919353,161.706044 359.670534,164.792689 C362.421715,167.879334 363.797284,172.352666 363.797284,178.212819 C363.797284,184.072972 362.421715,188.557487 359.670534,191.6665 C356.919353,194.775512 352.882112,196.329995 347.558689,196.329995 C342.235266,196.329995 338.186842,194.775512 335.413294,191.6665 C332.639746,188.557487 331.252993,184.072972 331.252993,178.212819 Z M347.525138,188.479219 C351.663093,188.479219 353.732039,185.068303 353.732039,178.24637 C353.732039,171.424436 351.663093,168.01352 347.525138,168.01352 C343.387184,168.01352 341.318237,171.424436 341.318237,178.24637 C341.318237,185.068303 343.387184,188.479219 347.525138,188.479219 Z M370.775854,193.78017 L370.775854,172.509264 C370.775854,169.154215 370.641652,166.805715 370.373244,165.463696 C370.104836,164.121676 369.970634,163.316476 369.970634,163.048072 C369.970634,162.332328 370.876497,161.795528 372.68825,161.437656 C374.500004,161.079785 375.853206,160.900851 376.747899,160.900851 C377.642592,160.900851 378.235317,160.990318 378.526092,161.169254 C378.816868,161.34819 379.051721,161.627773 379.23066,162.008012 C379.409598,162.388251 379.5438,162.701384 379.633269,162.947421 C379.722739,163.193458 379.82339,163.607241 379.935227,164.188783 C380.047063,164.770325 380.125348,165.128192 380.170082,165.262394 C382.048938,161.86261 384.486939,160.162744 387.48416,160.162744 C388.915669,160.162744 389.911,160.531794 390.470183,161.269905 C391.029366,162.008016 391.308953,162.846765 391.308953,163.786179 C391.308953,164.725593 391.10765,165.899843 390.705039,167.308963 C390.302427,168.718084 389.810353,169.422634 389.228803,169.422634 C388.960395,169.422634 388.490688,169.333167 387.819668,169.154231 C387.148649,168.975295 386.567107,168.885829 386.075026,168.885829 C383.838294,168.885829 382.048935,170.004162 380.706895,172.240861 L380.706895,193.78017 C380.706895,195.211658 379.364876,195.927391 376.680798,195.927391 L374.801952,195.927391 C372.117873,195.927391 370.775854,195.211658 370.775854,193.78017 Z M122.491803,302.052579 L122.491803,220.029544 C122.491803,216.557652 124.227749,214.821733 127.699691,214.821733 L171.185555,214.821733 C173.789512,214.821733 175.091471,216.991632 175.091471,221.331497 L175.091471,225.367551 C175.091471,229.707416 173.789512,231.877316 171.185555,231.877316 L142.542172,231.877316 L142.542172,250.885829 L170.274174,250.885829 C172.878131,250.885829 174.18009,253.055729 174.18009,257.395593 L174.18009,261.431647 C174.18009,265.771512 172.878131,267.941412 170.274174,267.941412 L142.542172,267.941412 L142.542172,302.052579 C142.542172,304.830092 139.938254,306.218828 134.73034,306.218828 L130.303635,306.218828 C125.095721,306.218828 122.491803,304.830092 122.491803,302.052579 Z M186.679021,285.908363 L186.679021,241.772158 C186.679021,238.994645 189.282939,237.605909 194.490853,237.605909 L198.136374,237.605909 C203.344288,237.605909 205.948206,238.994645 205.948206,241.772158 L205.948206,283.044066 C205.948206,288.425498 208.552124,291.116174 213.760038,291.116174 C218.099966,291.116174 221.571857,288.59909 224.175814,283.564847 L224.175814,241.772158 C224.175814,238.994645 226.779732,237.605909 231.987646,237.605909 L235.633167,237.605909 C240.841081,237.605909 243.444999,238.994645 243.444999,241.772158 L243.444999,283.044066 C243.444999,288.425498 243.705391,292.93889 244.226182,296.584377 L245.007365,301.922384 C245.007365,303.31114 243.249721,304.352692 239.734379,305.047071 C236.219037,305.741449 233.59342,306.088633 231.857448,306.088633 C230.121477,306.088633 228.971413,305.915041 228.407223,305.567852 C227.843032,305.220663 227.387346,304.63479 227.040152,303.810215 C226.692958,302.985641 226.432566,302.334671 226.258969,301.857286 C226.085372,301.379901 225.890078,300.53364 225.673081,299.318478 C225.456085,298.103316 225.30419,297.36555 225.217391,297.105158 C223.134226,299.882671 220.378413,302.226163 216.949869,304.135704 C213.521326,306.045244 209.810743,307 205.818009,307 C199.308117,307 194.490869,305.285779 191.36612,301.857286 C188.241372,298.428793 186.679021,293.112538 186.679021,285.908363 Z M259.589451,302.052579 L259.589451,260.780671 C259.589451,254.270874 259.329059,249.714084 258.808268,247.110165 C258.287477,244.506246 258.027085,242.943918 258.027085,242.423135 C258.027085,241.034378 259.784729,239.992826 263.300071,239.298448 C266.815413,238.604069 269.44103,238.256885 271.177002,238.256885 C272.912973,238.256885 274.063037,238.430477 274.627227,238.777666 C275.191418,239.124856 275.647104,239.667331 275.994298,240.405108 C276.341492,241.142885 276.601884,241.750457 276.775481,242.227842 C276.949078,242.705227 277.144372,243.50809 277.361368,244.636455 C277.578365,245.76482 277.73026,246.459187 277.817059,246.719579 C279.900224,243.942066 282.677737,241.598574 286.149679,239.689034 C289.621622,237.779493 293.310506,236.824737 297.216441,236.824737 C303.726333,236.824737 308.543581,238.538958 311.66833,241.967451 C314.793078,245.395944 316.355429,250.712199 316.355429,257.916375 L316.355429,302.052579 C316.355429,304.830092 313.751511,306.218828 308.543597,306.218828 L304.898076,306.218828 C299.690162,306.218828 297.086244,304.830092 297.086244,302.052579 L297.086244,260.780671 C297.086244,255.399239 294.482326,252.708563 289.274412,252.708563 C284.934484,252.708563 281.462593,255.225647 278.858636,260.25989 L278.858636,302.052579 C278.858636,304.830092 276.254718,306.218828 271.046804,306.218828 L267.401283,306.218828 C262.193369,306.218828 259.589451,304.830092 259.589451,302.052579 Z M353.852221,307 C346.647941,307 340.789125,303.897043 336.2756,297.691037 C331.762075,291.48503 329.505346,282.935624 329.505346,272.042564 C329.505346,261.149503 331.91397,252.5567 336.73129,246.263896 C341.54861,239.971092 348.297098,236.824737 356.976954,236.824737 C362.098069,236.824737 366.52473,238.170075 370.257068,240.860791 L370.257068,211.957436 C370.257068,209.179923 372.860986,207.791187 378.0689,207.791187 L381.714421,207.791187 C386.922335,207.791187 389.526253,209.179923 389.526253,211.957436 L389.526253,283.044066 C389.526253,288.425498 389.786645,292.93889 390.307436,296.584377 L391.08862,301.922384 C391.08862,303.31114 389.330975,304.352692 385.815633,305.047071 C382.300291,305.741449 379.674674,306.088633 377.938703,306.088633 C376.202731,306.088633 375.052668,305.915041 374.488477,305.567852 C373.924286,305.220663 373.468601,304.656489 373.121407,303.875313 C372.774212,303.094137 372.51382,302.443167 372.340223,301.922384 C372.166626,301.4016 371.971332,300.555339 371.754336,299.383575 C371.53734,298.211812 371.385444,297.495745 371.298646,297.235353 C369.736272,300.099664 367.414445,302.443156 364.333096,304.265899 C361.251747,306.088642 357.758157,307 353.852221,307 Z M359.580898,291.24637 C363.747229,291.24637 367.305917,288.685888 370.257068,283.564847 L370.257068,254.531297 C367.305917,252.882148 364.268013,252.057586 361.143264,252.057586 C353.070998,252.057586 349.034925,258.588985 349.034925,271.651978 C349.034925,284.714971 352.550214,291.24637 359.580898,291.24637 Z" id="Lancaster-Neighbor-F" fill="#FF1171"></path>
    </g>
</svg>